<svg width="224" height="41" viewBox="0 0 224 41" fill="none" xmlns="http://www.w3.org/2000/svg">
<path d="M114.059 15.6367V5.13672H110.234V6.71172H112.289V15.6367H114.059ZM120.445 11.6617V10.4767H116.755V11.6617H120.445ZM126.057 5.06172C123.912 5.06172 122.547 6.06672 122.547 7.71672C122.547 8.73672 123.162 9.56172 124.182 10.0267C122.847 10.4467 122.022 11.4367 122.022 12.7267C122.022 14.5717 123.582 15.7117 126.057 15.7117C128.547 15.7117 130.107 14.5717 130.107 12.6967C130.107 11.4217 129.297 10.4467 128.022 10.0267C128.997 9.59172 129.582 8.79672 129.582 7.77672C129.582 6.09672 128.217 5.06172 126.057 5.06172ZM126.057 6.33672C127.332 6.33672 128.067 6.90672 128.067 7.88172C128.067 8.85672 127.332 9.41172 126.057 9.41172C124.797 9.41172 124.047 8.85672 124.047 7.88172C124.047 6.90672 124.797 6.33672 126.057 6.33672ZM126.057 10.7917C127.557 10.7917 128.427 11.4367 128.427 12.5317C128.427 13.6717 127.557 14.3167 126.057 14.3167C124.557 14.3167 123.702 13.6717 123.702 12.5317C123.702 11.4367 124.572 10.7917 126.057 10.7917ZM135.447 5.06172C133.302 5.06172 131.937 6.06672 131.937 7.71672C131.937 8.73672 132.552 9.56172 133.572 10.0267C132.237 10.4467 131.412 11.4367 131.412 12.7267C131.412 14.5717 132.972 15.7117 135.447 15.7117C137.937 15.7117 139.497 14.5717 139.497 12.6967C139.497 11.4217 138.687 10.4467 137.412 10.0267C138.387 9.59172 138.972 8.79672 138.972 7.77672C138.972 6.09672 137.607 5.06172 135.447 5.06172ZM135.447 6.33672C136.722 6.33672 137.457 6.90672 137.457 7.88172C137.457 8.85672 136.722 9.41172 135.447 9.41172C134.187 9.41172 133.437 8.85672 133.437 7.88172C133.437 6.90672 134.187 6.33672 135.447 6.33672ZM135.447 10.7917C136.947 10.7917 137.817 11.4367 137.817 12.5317C137.817 13.6717 136.947 14.3167 135.447 14.3167C133.947 14.3167 133.092 13.6717 133.092 12.5317C133.092 11.4367 133.962 10.7917 135.447 10.7917ZM144.837 5.06172C142.692 5.06172 141.327 6.06672 141.327 7.71672C141.327 8.73672 141.942 9.56172 142.962 10.0267C141.627 10.4467 140.802 11.4367 140.802 12.7267C140.802 14.5717 142.362 15.7117 144.837 15.7117C147.327 15.7117 148.887 14.5717 148.887 12.6967C148.887 11.4217 148.077 10.4467 146.802 10.0267C147.777 9.59172 148.362 8.79672 148.362 7.77672C148.362 6.09672 146.997 5.06172 144.837 5.06172ZM144.837 6.33672C146.112 6.33672 146.847 6.90672 146.847 7.88172C146.847 8.85672 146.112 9.41172 144.837 9.41172C143.577 9.41172 142.827 8.85672 142.827 7.88172C142.827 6.90672 143.577 6.33672 144.837 6.33672ZM144.837 10.7917C146.337 10.7917 147.207 11.4367 147.207 12.5317C147.207 13.6717 146.337 14.3167 144.837 14.3167C143.337 14.3167 142.482 13.6717 142.482 12.5317C142.482 11.4367 143.352 10.7917 144.837 10.7917ZM154.136 11.6617V10.4767H150.446V11.6617H154.136ZM159.119 15.7117C161.894 15.7117 163.649 13.5217 163.649 10.1767C163.649 6.95172 162.029 5.06172 159.374 5.06172C157.139 5.06172 155.684 6.41172 155.684 8.58672C155.684 10.6267 156.959 11.9317 159.059 11.9317C160.379 11.9317 161.369 11.4217 161.924 10.4467C161.984 12.7117 161.039 14.2417 158.999 14.2417C158.204 14.2417 157.319 14.0017 156.674 13.5817L155.984 14.9167C156.839 15.3967 158.084 15.7117 159.119 15.7117ZM159.389 10.5367C158.114 10.5367 157.334 9.80172 157.334 8.60172C157.334 7.32672 158.189 6.59172 159.464 6.59172C160.979 6.59172 161.654 7.62672 161.639 8.54172C161.654 9.62172 160.814 10.5367 159.389 10.5367ZM169.532 5.06172C166.757 5.06172 165.002 7.25172 165.002 10.5967C165.002 13.8217 166.622 15.7117 169.277 15.7117C171.512 15.7117 172.967 14.3617 172.967 12.1867C172.967 10.1467 171.692 8.84172 169.592 8.84172C168.272 8.84172 167.282 9.35172 166.727 10.3267C166.667 8.06172 167.612 6.53172 169.652 6.53172C170.447 6.53172 171.332 6.77172 171.977 7.19172L172.667 5.85672C171.812 5.37672 170.567 5.06172 169.532 5.06172ZM169.262 10.2367C170.537 10.2367 171.317 10.9717 171.317 12.1717C171.317 13.4467 170.462 14.1817 169.187 14.1817C167.672 14.1817 166.997 13.1467 167.012 12.2317C166.997 11.1517 167.837 10.2367 169.262 10.2367ZM175.851 11.4817L179.256 5.13672H177.546L173.961 11.7367V13.0567H178.971V15.6367H180.621V13.0567H182.151V11.4817H180.621V8.99172H178.971V11.4817H175.851ZM187.095 11.6617V10.4767H183.405V11.6617H187.095ZM192.033 15.6367V5.13672H188.208V6.71172H190.263V15.6367H192.033ZM198.508 5.06172C196.363 5.06172 194.998 6.06672 194.998 7.71672C194.998 8.73672 195.613 9.56172 196.633 10.0267C195.298 10.4467 194.473 11.4367 194.473 12.7267C194.473 14.5717 196.033 15.7117 198.508 15.7117C200.998 15.7117 202.558 14.5717 202.558 12.6967C202.558 11.4217 201.748 10.4467 200.473 10.0267C201.448 9.59172 202.033 8.79672 202.033 7.77672C202.033 6.09672 200.668 5.06172 198.508 5.06172ZM198.508 6.33672C199.783 6.33672 200.518 6.90672 200.518 7.88172C200.518 8.85672 199.783 9.41172 198.508 9.41172C197.248 9.41172 196.498 8.85672 196.498 7.88172C196.498 6.90672 197.248 6.33672 198.508 6.33672ZM198.508 10.7917C200.008 10.7917 200.878 11.4367 200.878 12.5317C200.878 13.6717 200.008 14.3167 198.508 14.3167C197.008 14.3167 196.153 13.6717 196.153 12.5317C196.153 11.4367 197.023 10.7917 198.508 10.7917ZM208.393 5.09172C205.513 5.09172 203.923 6.98172 203.923 10.3867C203.923 13.7917 205.513 15.6817 208.393 15.6817C211.258 15.6817 212.848 13.7917 212.848 10.3867C212.848 6.98172 211.258 5.09172 208.393 5.09172ZM208.393 6.48672C210.148 6.48672 211.033 7.71672 211.033 10.3867C211.033 13.0417 210.148 14.2867 208.393 14.2867C206.623 14.2867 205.738 13.0417 205.738 10.3867C205.738 7.71672 206.623 6.48672 208.393 6.48672ZM221.764 6.48672V5.13672H214.129V8.19672H215.689L215.704 6.72672H219.784L215.704 15.6367H217.579L221.764 6.48672Z" fill="#639DFF"/>
<path d="M116.984 32.3617V31.1767H114.344V28.5517H113.219V31.1767H110.564V32.3617H113.219V34.9867H114.344V32.3617H116.984ZM119.85 32.4817L123.255 26.1367H121.545L117.96 32.7367V34.0567H122.97V36.6367H124.62V34.0567H126.15V32.4817H124.62V29.9917H122.97V32.4817H119.85ZM128.829 32.4817L132.234 26.1367H130.524L126.939 32.7367V34.0567H131.949V36.6367H133.599V34.0567H135.129V32.4817H133.599V29.9917H131.949V32.4817H128.829ZM139.489 36.6367V26.1367H135.664V27.7117H137.719V36.6367H139.489ZM149.46 27.4867V26.1367H141.825V29.1967H143.385L143.4 27.7267H147.48L143.4 36.6367H145.275L149.46 27.4867ZM154.519 26.0617C152.374 26.0617 151.009 27.0667 151.009 28.7167C151.009 29.7367 151.624 30.5617 152.644 31.0267C151.309 31.4467 150.484 32.4367 150.484 33.7267C150.484 35.5717 152.044 36.7117 154.519 36.7117C157.009 36.7117 158.569 35.5717 158.569 33.6967C158.569 32.4217 157.759 31.4467 156.484 31.0267C157.459 30.5917 158.044 29.7967 158.044 28.7767C158.044 27.0967 156.679 26.0617 154.519 26.0617ZM154.519 27.3367C155.794 27.3367 156.529 27.9067 156.529 28.8817C156.529 29.8567 155.794 30.4117 154.519 30.4117C153.259 30.4117 152.509 29.8567 152.509 28.8817C152.509 27.9067 153.259 27.3367 154.519 27.3367ZM154.519 31.7917C156.019 31.7917 156.889 32.4367 156.889 33.5317C156.889 34.6717 156.019 35.3167 154.519 35.3167C153.019 35.3167 152.164 34.6717 152.164 33.5317C152.164 32.4367 153.034 31.7917 154.519 31.7917ZM163.279 36.7117C166.054 36.7117 167.809 34.5217 167.809 31.1767C167.809 27.9517 166.189 26.0617 163.534 26.0617C161.299 26.0617 159.844 27.4117 159.844 29.5867C159.844 31.6267 161.119 32.9317 163.219 32.9317C164.539 32.9317 165.529 32.4217 166.084 31.4467C166.144 33.7117 165.199 35.2417 163.159 35.2417C162.364 35.2417 161.479 35.0017 160.834 34.5817L160.144 35.9167C160.999 36.3967 162.244 36.7117 163.279 36.7117ZM163.549 31.5367C162.274 31.5367 161.494 30.8017 161.494 29.6017C161.494 28.3267 162.349 27.5917 163.624 27.5917C165.139 27.5917 165.814 28.6267 165.799 29.5417C165.814 30.6217 164.974 31.5367 163.549 31.5367ZM176.032 27.7267L176.017 26.1367H169.627V31.6867C170.332 31.6117 171.757 31.5517 172.387 31.5517C173.737 31.5517 174.562 32.2117 174.562 33.2767C174.562 34.4617 173.737 35.1667 172.372 35.1667C171.427 35.1667 170.377 34.7617 169.537 34.0567L168.832 35.4967C169.867 36.2167 171.322 36.6967 172.567 36.6967C174.922 36.6967 176.452 35.3017 176.452 33.1717C176.452 31.3267 174.982 29.9767 172.702 29.9767L171.262 29.9917V27.7267H176.032ZM181.795 26.0617C179.65 26.0617 178.285 27.0667 178.285 28.7167C178.285 29.7367 178.9 30.5617 179.92 31.0267C178.585 31.4467 177.76 32.4367 177.76 33.7267C177.76 35.5717 179.32 36.7117 181.795 36.7117C184.285 36.7117 185.845 35.5717 185.845 33.6967C185.845 32.4217 185.035 31.4467 183.76 31.0267C184.735 30.5917 185.32 29.7967 185.32 28.7767C185.32 27.0967 183.955 26.0617 181.795 26.0617ZM181.795 27.3367C183.07 27.3367 183.805 27.9067 183.805 28.8817C183.805 29.8567 183.07 30.4117 181.795 30.4117C180.535 30.4117 179.785 29.8567 179.785 28.8817C179.785 27.9067 180.535 27.3367 181.795 27.3367ZM181.795 31.7917C183.295 31.7917 184.165 32.4367 184.165 33.5317C184.165 34.6717 183.295 35.3167 181.795 35.3167C180.295 35.3167 179.44 34.6717 179.44 33.5317C179.44 32.4367 180.31 31.7917 181.795 31.7917ZM190.509 36.6367V26.1367H186.684V27.7117H188.739V36.6367H190.509ZM197.48 26.0917C194.6 26.0917 193.01 27.9817 193.01 31.3867C193.01 34.7917 194.6 36.6817 197.48 36.6817C200.345 36.6817 201.935 34.7917 201.935 31.3867C201.935 27.9817 200.345 26.0917 197.48 26.0917ZM197.48 27.4867C199.235 27.4867 200.12 28.7167 200.12 31.3867C200.12 34.0417 199.235 35.2867 197.48 35.2867C195.71 35.2867 194.825 34.0417 194.825 31.3867C194.825 28.7167 195.71 27.4867 197.48 27.4867ZM206.591 30.5017L209.591 27.2617V26.1517H203.201V27.7267H207.401L204.671 30.6667V31.7017H206.126C207.521 31.7017 208.346 32.2867 208.346 33.4267C208.346 34.5067 207.536 35.2267 206.141 35.2267C205.181 35.2267 204.206 34.8367 203.456 34.1317L202.721 35.5717C203.621 36.2617 204.971 36.7117 206.261 36.7117C208.601 36.7117 210.086 35.3467 210.086 33.3817C210.086 31.7317 208.886 30.7117 207.131 30.5617L206.591 30.5017ZM215.067 26.0617C213.717 26.0617 212.382 26.6317 211.242 27.5617L211.947 28.9267C212.832 28.1167 213.897 27.6067 214.812 27.6067C215.907 27.6067 216.567 28.1167 216.567 28.9567C216.567 29.5567 216.057 30.4117 215.292 31.1917L211.422 35.3467V36.6367H218.892V35.0467H213.762L216.492 32.1517C217.602 30.9517 218.412 29.7667 218.412 28.7017C218.412 27.0967 217.047 26.0617 215.067 26.0617Z" fill="#639DFF"/>
<path d="M8.58906 6.72672V5.13672H0.174063V6.72672H3.48906V15.6367H5.25906V6.72672H8.58906ZM12.3659 7.59672C9.8909 7.59672 8.1959 9.23172 8.1959 11.6467C8.1959 14.0467 9.8909 15.6967 12.3659 15.6967C14.8259 15.6967 16.5209 14.0467 16.5209 11.6467C16.5209 9.23172 14.8259 7.59672 12.3659 7.59672ZM12.3659 9.08172C13.7909 9.08172 14.7959 10.1317 14.7959 11.6617C14.7959 13.2067 13.7909 14.2567 12.3659 14.2567C10.9259 14.2567 9.9209 13.2067 9.9209 11.6617C9.9209 10.1317 10.9259 9.08172 12.3659 9.08172ZM20.1209 15.6367V4.50672H18.3959V15.6367H20.1209ZM24.5447 15.6367V4.50672H22.8197V15.6367H24.5447ZM30.4986 11.6617V10.4767H26.8086V11.6617H30.4986ZM39.831 6.72672L39.846 5.13672H32.796V15.6367H34.566V11.3317H39.336V9.75672H34.566V6.72672H39.831ZM43.0439 7.65672H41.3189V15.6367H43.0439V11.4667C43.1789 10.1017 44.1989 9.15672 45.8039 9.24672V7.59672C44.5439 7.59672 43.5839 8.16672 43.0439 9.24672V7.65672ZM50.5073 7.59672C48.1373 7.61172 46.4723 9.24672 46.4723 11.6617C46.4723 14.0617 48.0923 15.6967 50.5523 15.6967C51.9323 15.6967 53.0723 15.2017 53.8523 14.3467L52.9373 13.3717C52.3523 13.9717 51.5573 14.3017 50.6873 14.3017C49.4273 14.3017 48.4823 13.5367 48.2123 12.3067H54.2423C54.4523 9.42672 53.3123 7.59672 50.5073 7.59672ZM48.1823 11.0467C48.3773 9.77172 49.2623 8.97672 50.5223 8.97672C51.8273 8.97672 52.6823 9.75672 52.7423 11.0467H48.1823ZM59.3256 7.59672C56.9556 7.61172 55.2906 9.24672 55.2906 11.6617C55.2906 14.0617 56.9106 15.6967 59.3706 15.6967C60.7506 15.6967 61.8906 15.2017 62.6706 14.3467L61.7556 13.3717C61.1706 13.9717 60.3756 14.3017 59.5056 14.3017C58.2456 14.3017 57.3006 13.5367 57.0306 12.3067H63.0606C63.2706 9.42672 62.1306 7.59672 59.3256 7.59672ZM57.0006 11.0467C57.1956 9.77172 58.0806 8.97672 59.3406 8.97672C60.6456 8.97672 61.5006 9.75672 61.5606 11.0467H57.0006ZM71.7712 5.06172C70.4212 5.06172 69.0862 5.63172 67.9462 6.56172L68.6512 7.92672C69.5362 7.11672 70.6012 6.60672 71.5162 6.60672C72.6112 6.60672 73.2712 7.11672 73.2712 7.95672C73.2712 8.55672 72.7612 9.41172 71.9962 10.1917L68.1262 14.3467V15.6367H75.5962V14.0467H70.4662L73.1962 11.1517C74.3062 9.95172 75.1162 8.76672 75.1162 7.70172C75.1162 6.09672 73.7512 5.06172 71.7712 5.06172ZM78.6095 11.4817L82.0145 5.13672H80.3045L76.7195 11.7367V13.0567H81.7295V15.6367H83.3795V13.0567H84.9095V11.4817H83.3795V8.99172H81.7295V11.4817H78.6095ZM86.404 17.3917L91.159 3.39672H89.689L84.934 17.3917H86.404ZM98.4048 6.48672V5.13672H90.7698V8.19672H92.3298L92.3448 6.72672H96.4248L92.3448 15.6367H94.2198L98.4048 6.48672ZM100.405 9.33672C99.8645 9.33672 99.4595 9.74172 99.4595 10.3117C99.4595 10.8967 99.8645 11.3167 100.405 11.3167C100.945 11.3167 101.35 10.8967 101.35 10.3117C101.35 9.74172 100.945 9.33672 100.405 9.33672ZM100.405 13.7917C99.8645 13.7917 99.4595 14.1967 99.4595 14.7667C99.4595 15.3517 99.8645 15.7717 100.405 15.7717C100.945 15.7717 101.35 15.3517 101.35 14.7667C101.35 14.1967 100.945 13.7917 100.405 13.7917Z" fill="#E7F4FD"/>
</svg>
